Barlow-Light.ufo
<glyph name="exclam" format="1">
  <advance width="297"/>
  <unicode hex="0021"/>
  <outline>
    <contour>
      <point x="160" y="220" type="line"/>
      <point x="160" y="700" type="line"/>
      <point x="138" y="700" type="line"/>
      <point x="138" y="220" type="line"/>
    </contour>
    <contour>
      <point x="168" y="5"/>
      <point x="187" y="23"/>
      <point x="187" y="46" type="curve" smooth="yes"/>
      <point x="187" y="68"/>
      <point x="168" y="86"/>
      <point x="146" y="86" type="curve" smooth="yes"/>
      <point x="125" y="86"/>
      <point x="106" y="68"/>
      <point x="106" y="46" type="curve" smooth="yes"/>
      <point x="106" y="23"/>
      <point x="124" y="5"/>
      <point x="146" y="5" type="curve" smooth="yes"/>
    </contour>
  </outline>
</glyph>
<glyph name="quotedbl" format="1">
  <advance width="204"/>
  <unicode hex="0022"/>
  <outline>
    <contour>
      <point x="157" y="500" type="line"/>
      <point x="160" y="692" type="line"/>
      <point x="134" y="692" type="line"/>
      <point x="137" y="500" type="line"/>
    </contour>
    <contour>
      <point x="67" y="500" type="line"/>
      <point x="70" y="692" type="line"/>
      <point x="44" y="692" type="line"/>
      <point x="47" y="500" type="line"/>
    </contour>
  </outline>
</glyph>
<glyph name="dollar" format="1">
  <advance width="502"/>
  <unicode hex="0024"/>
  <outline>
    <contour>
      <point x="349" y="-5"/>
      <point x="412" y="50"/>
      <point x="412" y="149" type="curve" smooth="yes"/>
      <point x="412" y="255"/>
      <point x="339" y="307"/>
      <point x="257" y="361" type="curve" smooth="yes"/>
      <point x="176" y="414"/>
      <point x="112" y="457"/>
      <point x="112" y="550" type="curve" smooth="yes"/>
      <point x="112" y="634"/>
      <point x="164" y="684"/>
      <point x="248" y="684" type="curve" smooth="yes"/>
      <point x="332" y="684"/>
      <point x="384" y="635"/>
      <point x="384" y="548" type="curve" smooth="yes"/>
      <point x="384" y="500" type="line"/>
      <point x="406" y="500" type="line"/>
      <point x="406" y="550" type="line" smooth="yes"/>
      <point x="406" y="650"/>
      <point x="346" y="705"/>
      <point x="248" y="705" type="curve" smooth="yes"/>
      <point x="150" y="705"/>
      <point x="90" y="649"/>
      <point x="90" y="553" type="curve" smooth="yes"/>
      <point x="90" y="446"/>
      <point x="165" y="394"/>
      <point x="243" y="342" type="curve" smooth="yes"/>
      <point x="320" y="291"/>
      <point x="390" y="248"/>
      <point x="390" y="152" type="curve" smooth="yes"/>
      <point x="390" y="67"/>
      <point x="335" y="15"/>
      <point x="250" y="15" type="curve" smooth="yes"/>
      <point x="165" y="15"/>
      <point x="118" y="68"/>
      <point x="118" y="154" type="curve" smooth="yes"/>
      <point x="118" y="200" type="line"/>
      <point x="96" y="200" type="line"/>
      <point x="96" y="150" type="line" smooth="yes"/>
      <point x="96" y="50"/>
      <point x="152" y="-5"/>
      <point x="251" y="-5" type="curve" smooth="yes"/>
    </contour>
    <contour>
      <point x="265" y="-88" type="line"/>
      <point x="265" y="2" type="line"/>
      <point x="243" y="2" type="line"/>
      <point x="243" y="-88" type="line"/>
    </contour>
    <contour>
      <point x="258" y="702" type="line"/>
      <point x="258" y="792" type="line"/>
      <point x="236" y="792" type="line"/>
      <point x="236" y="702" type="line"/>
    </contour>
  </outline>
</glyph>
<glyph name="quotesingle" format="1">
  <advance width="70"/>
  <unicode hex="0027"/>
  <outline>
    <contour>
      <point x="23" y="507" type="line"/>
      <point x="26" y="697" type="line"/>
      <point x="0" y="697" type="line"/>
      <point x="3" y="507" type="line"/>
    </contour>
  </outline>
</glyph>
<glyph name="comma" format="1">
  <advance width="256"/>
  <unicode hex="002C"/>
  <outline>
    <contour>
      <point x="102" y="-66" type="line"/>
      <point x="156" y="153" type="line"/>
      <point x="134" y="153" type="line"/>
      <point x="80" y="-66" type="line"/>
    </contour>
  </outline>
</glyph>
<glyph name="hyphen" format="1">
  <advance width="299"/>
  <unicode hex="002D"/>
  <outline>
    <contour>
      <point x="276" y="251" type="line"/>
      <point x="276" y="272" type="line"/>
      <point x="23" y="272" type="line"/>
      <point x="23" y="251" type="line"/>
    </contour>
  </outline>
</glyph>
<glyph name="period" format="1">
  <advance width="320"/>
  <unicode hex="002E"/>
  <outline>
    <contour>
      <point x="177" y="3"/>
      <point x="191" y="17"/>
      <point x="191" y="34" type="curve" smooth="yes"/>
      <point x="191" y="50"/>
      <point x="177" y="64"/>
      <point x="160" y="64" type="curve" smooth="yes"/>
      <point x="143" y="64"/>
      <point x="129" y="50"/>
      <point x="129" y="34" type="curve" smooth="yes"/>
      <point x="129" y="17"/>
      <point x="143" y="3"/>
      <point x="160" y="3" type="curve" smooth="yes"/>
    </contour>
  </outline>
</glyph>
<glyph name="slash" format="1">
  <advance width="218"/>
  <unicode hex="002F"/>
  <outline>
    <contour>
      <point x="51" y="0" type="line"/>
      <point x="189" y="700" type="line"/>
      <point x="167" y="700" type="line"/>
      <point x="29" y="0" type="line"/>
    </contour>
  </outline>
</glyph>
<glyph name="zero" format="1">
  <advance width="582"/>
  <unicode hex="0030"/>
  <outline>
    <contour>
      <point x="403" y="-9"/>
      <point x="478" y="64"/>
      <point x="478" y="174" type="curve" smooth="yes"/>
      <point x="478" y="526" type="line" smooth="yes"/>
      <point x="478" y="636"/>
      <point x="403" y="709"/>
      <point x="290" y="709" type="curve" smooth="yes"/>
      <point x="178" y="709"/>
      <point x="104" y="636"/>
      <point x="104" y="526" type="curve" smooth="yes"/>
      <point x="104" y="174" type="line" smooth="yes"/>
      <point x="104" y="64"/>
      <point x="178" y="-9"/>
      <point x="290" y="-9" type="curve" smooth="yes"/>
    </contour>
    <contour>
      <point x="192" y="12"/>
      <point x="126" y="76"/>
      <point x="126" y="172" type="curve" smooth="yes"/>
      <point x="126" y="528" type="line" smooth="yes"/>
      <point x="126" y="624"/>
      <point x="192" y="688"/>
      <point x="290" y="688" type="curve" smooth="yes"/>
      <point x="390" y="688"/>
      <point x="456" y="624"/>
      <point x="456" y="528" type="curve" smooth="yes"/>
      <point x="456" y="172" type="line" smooth="yes"/>
      <point x="456" y="76"/>
      <point x="390" y="12"/>
      <point x="290" y="12" type="curve" smooth="yes"/>
    </contour>
  </outline>
</glyph>
<glyph name="one" format="1">
  <advance width="263"/>
  <unicode hex="0031"/>
  <outline>
    <contour>
      <point x="183" y="0" type="line"/>
      <point x="183" y="700" type="line"/>
      <point x="161" y="700" type="line"/>
      <point x="161" y="0" type="line"/>
    </contour>
    <contour>
      <point x="72" y="637" type="line"/>
      <point x="161" y="669" type="line"/>
      <point x="161" y="700" type="line"/>
      <point x="72" y="658" type="line"/>
    </contour>
  </outline>
</glyph>
<glyph name="two" format="1">
  <advance width="423"/>
  <unicode hex="0032"/>
  <outline>
    <contour>
      <point x="375" y="0" type="line"/>
      <point x="375" y="21" type="line"/>
      <point x="72" y="21" type="line"/>
      <point x="312" y="364" type="line" smooth="yes"/>
      <point x="350" y="419"/>
      <point x="374" y="470"/>
      <point x="374" y="530" type="curve" smooth="yes"/>
      <point x="374" y="615"/>
      <point x="325" y="705"/>
      <point x="211" y="705" type="curve" smooth="yes"/>
      <point x="106" y="705"/>
      <point x="43" y="635"/>
      <point x="43" y="500" type="curve"/>
      <point x="43" y="479" type="line"/>
      <point x="65" y="479" type="line"/>
      <point x="65" y="498" type="line" smooth="yes"/>
      <point x="65" y="616"/>
      <point x="119" y="684"/>
      <point x="210" y="684" type="curve" smooth="yes"/>
      <point x="298" y="684"/>
      <point x="352" y="620"/>
      <point x="352" y="528" type="curve" smooth="yes"/>
      <point x="352" y="476"/>
      <point x="335" y="434"/>
      <point x="307" y="395" type="curve" smooth="yes"/>
      <point x="43" y="21" type="line"/>
      <point x="43" y="0" type="line"/>
    </contour>
  </outline>
</glyph>
<glyph name="three" format="1">
  <advance width="473"/>
  <unicode hex="0033"/>
  <outline>
    <contour>
      <point x="332" y="-8"/>
      <point x="398" y="58"/>
      <point x="398" y="158" type="curve" smooth="yes"/>
      <point x="398" y="262" type="line" smooth="yes"/>
      <point x="398" y="364"/>
      <point x="338" y="433"/>
      <point x="219" y="426" type="curve"/>
      <point x="220" y="420" type="line"/>
      <point x="401" y="679" type="line"/>
      <point x="401" y="700" type="line"/>
      <point x="68" y="700" type="line"/>
      <point x="68" y="679" type="line"/>
      <point x="375" y="679" type="line"/>
      <point x="189" y="416" type="line"/>
      <point x="200" y="404" type="line"/>
      <point x="210" y="406"/>
      <point x="220" y="407"/>
      <point x="231" y="407" type="curve" smooth="yes"/>
      <point x="318" y="407"/>
      <point x="376" y="350"/>
      <point x="376" y="265" type="curve" smooth="yes"/>
      <point x="376" y="155" type="line" smooth="yes"/>
      <point x="376" y="70"/>
      <point x="318" y="13"/>
      <point x="231" y="13" type="curve" smooth="yes"/>
      <point x="144" y="13"/>
      <point x="85" y="70"/>
      <point x="85" y="155" type="curve" smooth="yes"/>
      <point x="85" y="201" type="line"/>
      <point x="63" y="201" type="line"/>
      <point x="63" y="158" type="line" smooth="yes"/>
      <point x="63" y="58"/>
      <point x="130" y="-8"/>
      <point x="231" y="-8" type="curve" smooth="yes"/>
    </contour>
  </outline>
</glyph>
<glyph name="four" format="1">
  <advance width="445"/>
  <unicode hex="0034"/>
  <outline>
    <contour>
      <point x="333" y="-7" type="line"/>
      <point x="355" y="-7" type="line"/>
      <point x="355" y="415" type="line"/>
      <point x="333" y="415" type="line"/>
    </contour>
    <contour>
      <point x="59" y="222" type="line"/>
      <point x="280" y="700" type="line"/>
      <point x="256" y="700" type="line"/>
      <point x="36" y="222" type="line"/>
      <point x="36" y="202" type="line"/>
      <point x="409" y="202" type="line"/>
      <point x="409" y="222" type="line"/>
    </contour>
  </outline>
</glyph>
<glyph name="five" format="1">
  <advance width="510"/>
  <unicode hex="0035"/>
  <outline>
    <contour>
      <point x="353" y="-9"/>
      <point x="419" y="57"/>
      <point x="419" y="157" type="curve" smooth="yes"/>
      <point x="419" y="262" type="line" smooth="yes"/>
      <point x="419" y="362"/>
      <point x="353" y="428"/>
      <point x="254" y="428" type="curve" smooth="yes"/>
      <point x="154" y="428"/>
      <point x="93" y="381"/>
      <point x="93" y="311" type="curve"/>
      <point x="93" y="307" type="line"/>
      <point x="113" y="307" type="line"/>
      <point x="113" y="311" type="line" smooth="yes"/>
      <point x="113" y="369"/>
      <point x="167" y="407"/>
      <point x="255" y="407" type="curve" smooth="yes"/>
      <point x="340" y="407"/>
      <point x="397" y="350"/>
      <point x="397" y="265" type="curve" smooth="yes"/>
      <point x="397" y="154" type="line" smooth="yes"/>
      <point x="397" y="69"/>
      <point x="340" y="12"/>
      <point x="255" y="12" type="curve" smooth="yes"/>
      <point x="170" y="12"/>
      <point x="113" y="69"/>
      <point x="113" y="154" type="curve" smooth="yes"/>
      <point x="113" y="158" type="line"/>
      <point x="91" y="158" type="line"/>
      <point x="91" y="157" type="line" smooth="yes"/>
      <point x="91" y="57"/>
      <point x="157" y="-9"/>
      <point x="255" y="-9" type="curve" smooth="yes"/>
    </contour>
    <contour>
      <point x="113" y="307" type="line"/>
      <point x="113" y="679" type="line"/>
      <point x="405" y="679" type="line"/>
      <point x="405" y="700" type="line"/>
      <point x="91" y="700" type="line"/>
      <point x="91" y="307" type="line"/>
    </contour>
  </outline>
</glyph>
<glyph name="six" format="1">
  <advance width="491"/>
  <unicode hex="0036"/>
  <outline>
    <contour>
      <point x="360" y="-8"/>
      <point x="428" y="58"/>
      <point x="428" y="158" type="curve" smooth="yes"/>
      <point x="428" y="262" type="line" smooth="yes"/>
      <point x="428" y="362"/>
      <point x="360" y="428"/>
      <point x="255" y="428" type="curve" smooth="yes"/>
      <point x="183" y="428"/>
      <point x="127" y="395"/>
      <point x="100" y="340" type="curve"/>
      <point x="103" y="340" type="line"/>
      <point x="103" y="545" type="line" smooth="yes"/>
      <point x="103" y="630"/>
      <point x="164" y="687"/>
      <point x="255" y="687" type="curve" smooth="yes"/>
      <point x="346" y="687"/>
      <point x="406" y="630"/>
      <point x="406" y="545" type="curve" smooth="yes"/>
      <point x="406" y="500" type="line"/>
      <point x="428" y="500" type="line"/>
      <point x="428" y="542" type="line" smooth="yes"/>
      <point x="428" y="642"/>
      <point x="360" y="708"/>
      <point x="255" y="708" type="curve" smooth="yes"/>
      <point x="150" y="708"/>
      <point x="81" y="642"/>
      <point x="81" y="542" type="curve" smooth="yes"/>
      <point x="81" y="158" type="line" smooth="yes"/>
      <point x="81" y="58"/>
      <point x="150" y="-8"/>
      <point x="255" y="-8" type="curve" smooth="yes"/>
    </contour>
    <contour>
      <point x="164" y="13"/>
      <point x="103" y="70"/>
      <point x="103" y="155" type="curve" smooth="yes"/>
      <point x="103" y="265" type="line" smooth="yes"/>
      <point x="103" y="350"/>
      <point x="164" y="407"/>
      <point x="255" y="407" type="curve" smooth="yes"/>
      <point x="346" y="407"/>
      <point x="406" y="350"/>
      <point x="406" y="265" type="curve" smooth="yes"/>
      <point x="406" y="155" type="line" smooth="yes"/>
      <point x="406" y="70"/>
      <point x="346" y="13"/>
      <point x="255" y="13" type="curve" smooth="yes"/>
    </contour>
  </outline>
</glyph>
<glyph name="seven" format="1">
  <advance width="389"/>
  <unicode hex="0037"/>
  <outline>
    <contour>
      <point x="137" y="0" type="line"/>
      <point x="365" y="679" type="line"/>
      <point x="365" y="700" type="line"/>
      <point x="24" y="700" type="line"/>
      <point x="24" y="679" type="line"/>
      <point x="341" y="679" type="line"/>
      <point x="112" y="0" type="line"/>
    </contour>
  </outline>
</glyph>
<glyph name="eight" format="1">
  <advance width="484"/>
  <unicode hex="0038"/>
  <outline>
    <contour>
      <point x="345" y="-18"/>
      <point x="412" y="54"/>
      <point x="412" y="161" type="curve" smooth="yes"/>
      <point x="412" y="215" type="line" smooth="yes"/>
      <point x="412" y="322"/>
      <point x="345" y="394"/>
      <point x="243" y="394" type="curve" smooth="yes"/>
      <point x="141" y="394"/>
      <point x="72" y="322"/>
      <point x="72" y="215" type="curve" smooth="yes"/>
      <point x="72" y="161" type="line" smooth="yes"/>
      <point x="72" y="54"/>
      <point x="141" y="-18"/>
      <point x="243" y="-18" type="curve" smooth="yes"/>
    </contour>
    <contour>
      <point x="154" y="2"/>
      <point x="94" y="66"/>
      <point x="94" y="161" type="curve" smooth="yes"/>
      <point x="94" y="215" type="line" smooth="yes"/>
      <point x="94" y="311"/>
      <point x="154" y="375"/>
      <point x="243" y="375" type="curve" smooth="yes"/>
      <point x="332" y="375"/>
      <point x="390" y="311"/>
      <point x="390" y="215" type="curve" smooth="yes"/>
      <point x="390" y="161" type="line" smooth="yes"/>
      <point x="390" y="66"/>
      <point x="332" y="2"/>
      <point x="243" y="2" type="curve" smooth="yes"/>
    </contour>
    <contour>
      <point x="345" y="375"/>
      <point x="410" y="439"/>
      <point x="410" y="534" type="curve" smooth="yes"/>
      <point x="410" y="549" type="line" smooth="yes"/>
      <point x="410" y="644"/>
      <point x="345" y="708"/>
      <point x="243" y="708" type="curve" smooth="yes"/>
      <point x="141" y="708"/>
      <point x="74" y="644"/>
      <point x="74" y="549" type="curve" smooth="yes"/>
      <point x="74" y="534" type="line" smooth="yes"/>
      <point x="74" y="439"/>
      <point x="141" y="375"/>
      <point x="243" y="375" type="curve" smooth="yes"/>
    </contour>
    <contour>
      <point x="154" y="395"/>
      <point x="96" y="451"/>
      <point x="96" y="534" type="curve" smooth="yes"/>
      <point x="96" y="549" type="line" smooth="yes"/>
      <point x="96" y="633"/>
      <point x="154" y="689"/>
      <point x="243" y="689" type="curve" smooth="yes"/>
      <point x="332" y="689"/>
      <point x="388" y="633"/>
      <point x="388" y="549" type="curve" smooth="yes"/>
      <point x="388" y="534" type="line" smooth="yes"/>
      <point x="388" y="451"/>
      <point x="332" y="395"/>
      <point x="243" y="395" type="curve" smooth="yes"/>
    </contour>
  </outline>
</glyph>
<glyph name="colon" format="1">
  <advance width="321"/>
  <unicode hex="003A"/>
  <outline>
    <contour>
      <point x="182" y="350"/>
      <point x="202" y="368"/>
      <point x="202" y="391" type="curve" smooth="yes"/>
      <point x="202" y="413"/>
      <point x="182" y="431"/>
      <point x="160" y="431" type="curve" smooth="yes"/>
      <point x="138" y="431"/>
      <point x="119" y="413"/>
      <point x="119" y="391" type="curve" smooth="yes"/>
      <point x="119" y="368"/>
      <point x="137" y="350"/>
      <point x="160" y="350" type="curve" smooth="yes"/>
    </contour>
    <contour>
      <point x="182" y="7"/>
      <point x="202" y="25"/>
      <point x="202" y="48" type="curve" smooth="yes"/>
      <point x="202" y="70"/>
      <point x="182" y="88"/>
      <point x="160" y="88" type="curve" smooth="yes"/>
      <point x="138" y="88"/>
      <point x="119" y="70"/>
      <point x="119" y="48" type="curve" smooth="yes"/>
      <point x="119" y="25"/>
      <point x="137" y="7"/>
      <point x="160" y="7" type="curve" smooth="yes"/>
    </contour>
  </outline>
</glyph>
<glyph name="semicolon" format="1">
  <advance width="298"/>
  <unicode hex="003B"/>
  <outline>
    <contour>
      <point x="133" y="-60" type="line"/>
      <point x="168" y="147" type="line"/>
      <point x="144" y="147" type="line"/>
      <point x="112" y="-60" type="line"/>
    </contour>
    <contour>
      <point x="174" y="370"/>
      <point x="193" y="388"/>
      <point x="193" y="411" type="curve"/>
      <point x="193" y="433"/>
      <point x="174" y="451"/>
      <point x="152" y="451" type="curve" smooth="yes"/>
      <point x="131" y="451"/>
      <point x="112" y="433"/>
      <point x="112" y="411" type="curve" smooth="yes"/>
      <point x="112" y="388"/>
      <point x="130" y="370"/>
      <point x="152" y="370" type="curve" smooth="yes"/>
    </contour>
  </outline>
</glyph>
<glyph name="question" format="1">
  <advance width="405"/>
  <unicode hex="003F"/>
  <outline>
    <contour>
      <point x="197" y="185" type="line"/>
      <point x="197" y="271" type="line"/>
      <point x="197" y="372"/>
      <point x="356" y="378"/>
      <point x="356" y="546" type="curve" smooth="yes"/>
      <point x="356" y="645"/>
      <point x="294" y="709"/>
      <point x="202" y="709" type="curve" smooth="yes"/>
      <point x="109" y="709"/>
      <point x="46" y="645"/>
      <point x="46" y="550" type="curve" smooth="yes"/>
      <point x="46" y="500" type="line"/>
      <point x="68" y="500" type="line"/>
      <point x="68" y="550" type="line" smooth="yes"/>
      <point x="68" y="633"/>
      <point x="122" y="688"/>
      <point x="202" y="688" type="curve" smooth="yes"/>
      <point x="281" y="688"/>
      <point x="334" y="633"/>
      <point x="334" y="549" type="curve" smooth="yes"/>
      <point x="334" y="395"/>
      <point x="173" y="394"/>
      <point x="173" y="271" type="curve"/>
      <point x="173" y="185" type="line"/>
    </contour>
    <contour>
      <point x="209" y="5"/>
      <point x="228" y="23"/>
      <point x="228" y="46" type="curve" smooth="yes"/>
      <point x="228" y="68"/>
      <point x="209" y="86"/>
      <point x="187" y="86" type="curve" smooth="yes"/>
      <point x="166" y="86"/>
      <point x="147" y="68"/>
      <point x="147" y="46" type="curve" smooth="yes"/>
      <point x="147" y="23"/>
      <point x="165" y="5"/>
      <point x="187" y="5" type="curve" smooth="yes"/>
    </contour>
  </outline>
</glyph>
<glyph name="at" format="1">
  <advance width="882"/>
  <unicode hex="0040"/>
  <outline>
    <contour>
      <point x="640" y="-71"/>
      <point x="802" y="92"/>
      <point x="802" y="290" type="curve" smooth="yes"/>
      <point x="802" y="488"/>
      <point x="640" y="651"/>
      <point x="441" y="651" type="curve" smooth="yes"/>
      <point x="242" y="651"/>
      <point x="80" y="488"/>
      <point x="80" y="290" type="curve" smooth="yes"/>
      <point x="80" y="92"/>
      <point x="242" y="-71"/>
      <point x="441" y="-71" type="curve" smooth="yes"/>
    </contour>
    <contour>
      <point x="254" y="-50"/>
      <point x="102" y="102"/>
      <point x="102" y="290" type="curve" smooth="yes"/>
      <point x="102" y="478"/>
      <point x="254" y="630"/>
      <point x="441" y="630" type="curve" smooth="yes"/>
      <point x="628" y="630"/>
      <point x="780" y="478"/>
      <point x="780" y="290" type="curve" smooth="yes"/>
      <point x="780" y="102"/>
      <point x="628" y="-50"/>
      <point x="441" y="-50" type="curve" smooth="yes"/>
    </contour>
    <contour>
      <point x="507" y="119"/>
      <point x="551" y="166"/>
      <point x="551" y="241" type="curve" smooth="yes"/>
      <point x="551" y="383" type="line" smooth="yes"/>
      <point x="551" y="458"/>
      <point x="507" y="505"/>
      <point x="435" y="505" type="curve" smooth="yes"/>
      <point x="362" y="505"/>
      <point x="314" y="459"/>
      <point x="314" y="384" type="curve" smooth="yes"/>
      <point x="314" y="240" type="line" smooth="yes"/>
      <point x="314" y="165"/>
      <point x="362" y="119"/>
      <point x="435" y="119" type="curve" smooth="yes"/>
    </contour>
    <contour>
      <point x="370" y="135"/>
      <point x="331" y="175"/>
      <point x="331" y="240" type="curve" smooth="yes"/>
      <point x="331" y="384" type="line" smooth="yes"/>
      <point x="331" y="449"/>
      <point x="372" y="489"/>
      <point x="435" y="489" type="curve" smooth="yes"/>
      <point x="499" y="489"/>
      <point x="540" y="449"/>
      <point x="540" y="384" type="curve" smooth="yes"/>
      <point x="540" y="240" type="line" smooth="yes"/>
      <point x="540" y="175"/>
      <point x="501" y="135"/>
      <point x="435" y="135" type="curve" smooth="yes"/>
    </contour>
    <contour>
      <point x="556" y="124" type="line"/>
      <point x="556" y="500" type="line"/>
      <point x="540" y="500" type="line"/>
      <point x="540" y="124" type="line"/>
    </contour>
  </outline>
</glyph>
<glyph name="A" format="1">
  <advance width="449"/>
  <unicode hex="0041"/>
  <outline>
    <contour>
      <point x="35" y="0" type="line"/>
      <point x="225" y="658" type="line"/>
      <point x="415" y="0" type="line"/>
      <point x="437" y="0" type="line"/>
      <point x="236" y="700" type="line"/>
      <point x="213" y="700" type="line"/>
      <point x="12" y="0" type="line"/>
    </contour>
    <contour>
      <point x="382" y="145" type="line"/>
      <point x="382" y="166" type="line"/>
      <point x="72" y="166" type="line"/>
      <point x="72" y="145" type="line"/>
    </contour>
  </outline>
</glyph>
<glyph name="B" format="1">
  <advance width="496"/>
  <unicode hex="0042"/>
  <outline>
    <contour>
      <point x="94" y="679" type="line"/>
      <point x="256" y="679" type="line" smooth="yes"/>
      <point x="359" y="679"/>
      <point x="428" y="617"/>
      <point x="428" y="523" type="curve" smooth="yes"/>
      <point x="428" y="433"/>
      <point x="359" y="373"/>
      <point x="256" y="373" type="curve" smooth="yes"/>
      <point x="94" y="373" type="line"/>
    </contour>
    <contour>
      <point x="256" y="352" type="line" smooth="yes"/>
      <point x="372" y="352"/>
      <point x="450" y="421"/>
      <point x="450" y="523" type="curve" smooth="yes"/>
      <point x="450" y="629"/>
      <point x="372" y="700"/>
      <point x="256" y="700" type="curve" smooth="yes"/>
      <point x="72" y="700" type="line"/>
      <point x="72" y="352" type="line"/>
    </contour>
    <contour>
      <point x="94" y="352" type="line"/>
      <point x="256" y="352" type="line" smooth="yes"/>
      <point x="359" y="352"/>
      <point x="429" y="285"/>
      <point x="429" y="186" type="curve" smooth="yes"/>
      <point x="429" y="88"/>
      <point x="359" y="22"/>
      <point x="256" y="22" type="curve" smooth="yes"/>
      <point x="94" y="22" type="line"/>
    </contour>
    <contour>
      <point x="256" y="0" type="line" smooth="yes"/>
      <point x="372" y="0"/>
      <point x="451" y="74"/>
      <point x="451" y="186" type="curve" smooth="yes"/>
      <point x="451" y="299"/>
      <point x="373" y="373"/>
      <point x="256" y="373" type="curve" smooth="yes"/>
      <point x="72" y="373" type="line"/>
      <point x="72" y="0" type="line"/>
    </contour>
  </outline>
</glyph>
<glyph name="C" format="1">
  <advance width="499"/>
  <unicode hex="0043"/>
  <outline>
    <contour>
      <point x="358" y="-9"/>
      <point x="427" y="56"/>
      <point x="427" y="154" type="curve" smooth="yes"/>
      <point x="427" y="179" type="line"/>
      <point x="405" y="179" type="line"/>
      <point x="405" y="152" type="line" smooth="yes"/>
      <point x="405" y="68"/>
      <point x="345" y="12"/>
      <point x="254" y="12" type="curve" smooth="yes"/>
      <point x="163" y="12"/>
      <point x="103" y="68"/>
      <point x="103" y="152" type="curve" smooth="yes"/>
      <point x="103" y="548" type="line" smooth="yes"/>
      <point x="103" y="632"/>
      <point x="163" y="688"/>
      <point x="254" y="688" type="curve" smooth="yes"/>
      <point x="345" y="688"/>
      <point x="405" y="632"/>
      <point x="405" y="548" type="curve" smooth="yes"/>
      <point x="405" y="520" type="line"/>
      <point x="427" y="520" type="line"/>
      <point x="427" y="546" type="line" smooth="yes"/>
      <point x="427" y="644"/>
      <point x="358" y="709"/>
      <point x="254" y="709" type="curve" smooth="yes"/>
      <point x="150" y="709"/>
      <point x="81" y="644"/>
      <point x="81" y="546" type="curve" smooth="yes"/>
      <point x="81" y="154" type="line" smooth="yes"/>
      <point x="81" y="56"/>
      <point x="150" y="-9"/>
      <point x="254" y="-9" type="curve" smooth="yes"/>
    </contour>
  </outline>
</glyph>
<glyph name="D" format="1">
  <advance width="523"/>
  <unicode hex="0044"/>
  <outline>
    <contour>
      <point x="271" y="0" type="line" smooth="yes"/>
      <point x="380" y="0"/>
      <point x="447" y="68"/>
      <point x="447" y="180" type="curve" smooth="yes"/>
      <point x="447" y="520" type="line" smooth="yes"/>
      <point x="447" y="632"/>
      <point x="380" y="700"/>
      <point x="271" y="700" type="curve" smooth="yes"/>
      <point x="97" y="700" type="line"/>
      <point x="97" y="0" type="line"/>
    </contour>
    <contour>
      <point x="119" y="679" type="line"/>
      <point x="273" y="679" type="line" smooth="yes"/>
      <point x="367" y="679"/>
      <point x="425" y="619"/>
      <point x="425" y="520" type="curve" smooth="yes"/>
      <point x="425" y="179" type="line" smooth="yes"/>
      <point x="425" y="81"/>
      <point x="367" y="21"/>
      <point x="273" y="21" type="curve" smooth="yes"/>
      <point x="119" y="21" type="line"/>
    </contour>
  </outline>
</glyph>
<glyph name="E" format="1">
  <advance width="481"/>
  <unicode hex="0045"/>
  <outline>
    <contour>
      <point x="445" y="0" type="line"/>
      <point x="445" y="21" type="line"/>
      <point x="103" y="21" type="line"/>
      <point x="103" y="679" type="line"/>
      <point x="445" y="679" type="line"/>
      <point x="445" y="700" type="line"/>
      <point x="81" y="700" type="line"/>
      <point x="81" y="0" type="line"/>
    </contour>
    <contour>
      <point x="338" y="340" type="line"/>
      <point x="338" y="361" type="line"/>
      <point x="92" y="361" type="line"/>
      <point x="92" y="340" type="line"/>
    </contour>
  </outline>
</glyph>
<glyph name="F" format="1">
  <advance width="485"/>
  <unicode hex="0046"/>
  <outline>
    <contour>
      <point x="121" y="0" type="line"/>
      <point x="121" y="679" type="line"/>
      <point x="440" y="679" type="line"/>
      <point x="440" y="700" type="line"/>
      <point x="99" y="700" type="line"/>
      <point x="99" y="0" type="line"/>
    </contour>
    <contour>
      <point x="343" y="340" type="line"/>
      <point x="343" y="361" type="line"/>
      <point x="110" y="361" type="line"/>
      <point x="110" y="340" type="line"/>
    </contour>
  </outline>
</glyph>
<glyph name="G" format="1">
  <advance width="517"/>
  <unicode hex="0047"/>
  <outline>
    <contour>
      <point x="390" y="-8"/>
      <point x="467" y="64"/>
      <point x="467" y="174" type="curve" smooth="yes"/>
      <point x="467" y="342" type="line"/>
      <point x="283" y="342" type="line"/>
      <point x="283" y="321" type="line"/>
      <point x="445" y="321" type="line"/>
      <point x="445" y="173" type="line" smooth="yes"/>
      <point x="445" y="77"/>
      <point x="377" y="13"/>
      <point x="274" y="13" type="curve" smooth="yes"/>
      <point x="171" y="13"/>
      <point x="102" y="77"/>
      <point x="102" y="173" type="curve" smooth="yes"/>
      <point x="102" y="527" type="line" smooth="yes"/>
      <point x="102" y="623"/>
      <point x="171" y="687"/>
      <point x="274" y="687" type="curve" smooth="yes"/>
      <point x="377" y="687"/>
      <point x="445" y="623"/>
      <point x="445" y="527" type="curve" smooth="yes"/>
      <point x="445" y="500" type="line"/>
      <point x="467" y="500" type="line"/>
      <point x="467" y="526" type="line" smooth="yes"/>
      <point x="467" y="636"/>
      <point x="390" y="708"/>
      <point x="274" y="708" type="curve" smooth="yes"/>
      <point x="158" y="708"/>
      <point x="80" y="636"/>
      <point x="80" y="526" type="curve" smooth="yes"/>
      <point x="80" y="174" type="line" smooth="yes"/>
      <point x="80" y="64"/>
      <point x="158" y="-8"/>
      <point x="274" y="-8" type="curve" smooth="yes"/>
    </contour>
  </outline>
</glyph>
<glyph name="H" format="1">
  <advance width="499"/>
  <unicode hex="0048"/>
  <outline>
    <contour>
      <point x="424" y="0" type="line"/>
      <point x="424" y="700" type="line"/>
      <point x="402" y="700" type="line"/>
      <point x="402" y="0" type="line"/>
    </contour>
    <contour>
      <point x="102" y="0" type="line"/>
      <point x="102" y="700" type="line"/>
      <point x="80" y="700" type="line"/>
      <point x="80" y="0" type="line"/>
    </contour>
    <contour>
      <point x="407" y="340" type="line"/>
      <point x="407" y="361" type="line"/>
      <point x="97" y="361" type="line"/>
      <point x="97" y="340" type="line"/>
    </contour>
  </outline>
</glyph>
<glyph name="I" format="1">
  <advance width="220"/>
  <unicode hex="0049"/>
  <outline>
    <contour>
      <point x="121" y="0" type="line"/>
      <point x="121" y="700" type="line"/>
      <point x="99" y="700" type="line"/>
      <point x="99" y="0" type="line"/>
    </contour>
  </outline>
</glyph>
<glyph name="J" format="1">
  <advance width="513"/>
  <unicode hex="004A"/>
  <outline>
    <contour>
      <point x="346" y="-9"/>
      <point x="414" y="56"/>
      <point x="414" y="154" type="curve" smooth="yes"/>
      <point x="414" y="700" type="line"/>
      <point x="392" y="700" type="line"/>
      <point x="392" y="152" type="line" smooth="yes"/>
      <point x="392" y="68"/>
      <point x="332" y="12"/>
      <point x="243" y="12" type="curve" smooth="yes"/>
      <point x="154" y="12"/>
      <point x="94" y="68"/>
      <point x="94" y="152" type="curve" smooth="yes"/>
      <point x="94" y="234" type="line"/>
      <point x="72" y="234" type="line"/>
      <point x="72" y="154" type="line" smooth="yes"/>
      <point x="72" y="56"/>
      <point x="140" y="-9"/>
      <point x="243" y="-9" type="curve" smooth="yes"/>
    </contour>
  </outline>
</glyph>
<glyph name="K" format="1">
  <advance width="432"/>
  <unicode hex="004B"/>
  <outline>
    <contour>
      <point x="122" y="0" type="line"/>
      <point x="122" y="328" type="line"/>
      <point x="403" y="0" type="line"/>
      <point x="432" y="0" type="line"/>
      <point x="130" y="350" type="line"/>
      <point x="432" y="700" type="line"/>
      <point x="403" y="700" type="line"/>
      <point x="122" y="372" type="line"/>
      <point x="122" y="700" type="line"/>
      <point x="100" y="700" type="line"/>
      <point x="100" y="0" type="line"/>
    </contour>
  </outline>
</glyph>
<glyph name="L" format="1">
  <advance width="450"/>
  <unicode hex="004C"/>
  <outline>
    <contour>
      <point x="432" y="0" type="line"/>
      <point x="432" y="21" type="line"/>
      <point x="121" y="21" type="line"/>
      <point x="121" y="700" type="line"/>
      <point x="99" y="700" type="line"/>
      <point x="99" y="0" type="line"/>
    </contour>
  </outline>
</glyph>
<glyph name="M" format="1">
  <advance width="580"/>
  <unicode hex="004D"/>
  <outline>
    <contour>
      <point x="122" y="0" type="line"/>
      <point x="122" y="651" type="line"/>
      <point x="290" y="327" type="line"/>
      <point x="458" y="651" type="line"/>
      <point x="458" y="0" type="line"/>
      <point x="480" y="0" type="line"/>
      <point x="480" y="700" type="line"/>
      <point x="458" y="700" type="line"/>
      <point x="290" y="372" type="line"/>
      <point x="122" y="700" type="line"/>
      <point x="100" y="700" type="line"/>
      <point x="100" y="0" type="line"/>
    </contour>
  </outline>
</glyph>
<glyph name="N" format="1">
  <advance width="515"/>
  <unicode hex="004E"/>
  <outline>
    <contour>
      <point x="104" y="0" type="line"/>
      <point x="104" y="647" type="line"/>
      <point x="411" y="0" type="line"/>
      <point x="433" y="0" type="line"/>
      <point x="433" y="700" type="line"/>
      <point x="411" y="700" type="line"/>
      <point x="411" y="53" type="line"/>
      <point x="104" y="700" type="line"/>
      <point x="82" y="700" type="line"/>
      <point x="82" y="0" type="line"/>
    </contour>
  </outline>
</glyph>
<glyph name="O" format="1">
  <advance width="522"/>
  <unicode hex="004F"/>
  <outline>
    <contour>
      <point x="371" y="-9"/>
      <point x="442" y="56"/>
      <point x="442" y="154" type="curve" smooth="yes"/>
      <point x="442" y="546" type="line" smooth="yes"/>
      <point x="442" y="644"/>
      <point x="371" y="709"/>
      <point x="261" y="709" type="curve" smooth="yes"/>
      <point x="151" y="709"/>
      <point x="80" y="644"/>
      <point x="80" y="546" type="curve" smooth="yes"/>
      <point x="80" y="154" type="line" smooth="yes"/>
      <point x="80" y="56"/>
      <point x="151" y="-9"/>
      <point x="261" y="-9" type="curve" smooth="yes"/>
    </contour>
    <contour>
      <point x="164" y="12"/>
      <point x="102" y="68"/>
      <point x="102" y="152" type="curve" smooth="yes"/>
      <point x="102" y="548" type="line" smooth="yes"/>
      <point x="102" y="632"/>
      <point x="164" y="688"/>
      <point x="261" y="688" type="curve" smooth="yes"/>
      <point x="358" y="688"/>
      <point x="420" y="632"/>
      <point x="420" y="548" type="curve" smooth="yes"/>
      <point x="420" y="152" type="line" smooth="yes"/>
      <point x="420" y="68"/>
      <point x="358" y="12"/>
      <point x="261" y="12" type="curve" smooth="yes"/>
    </contour>
  </outline>
</glyph>
<glyph name="P" format="1">
  <advance width="532"/>
  <unicode hex="0050"/>
  <outline>
    <contour>
      <point x="122" y="0" type="line"/>
      <point x="122" y="680" type="line"/>
      <point x="299" y="680" type="line" smooth="yes"/>
      <point x="383" y="680"/>
      <point x="439" y="616"/>
      <point x="439" y="520" type="curve" smooth="yes"/>
      <point x="439" y="424"/>
      <point x="383" y="360"/>
      <point x="299" y="360" type="curve" smooth="yes"/>
      <point x="117" y="360" type="line"/>
      <point x="117" y="340" type="line"/>
      <point x="297" y="340" type="line" smooth="yes"/>
      <point x="395" y="340"/>
      <point x="460" y="411"/>
      <point x="460" y="520" type="curve" smooth="yes"/>
      <point x="460" y="629"/>
      <point x="395" y="702"/>
      <point x="297" y="702" type="curve" smooth="yes"/>
      <point x="99" y="702" type="line"/>
      <point x="99" y="0" type="line"/>
    </contour>
  </outline>
</glyph>
<glyph name="Q" format="1">
  <advance width="479"/>
  <unicode hex="0051"/>
  <outline>
    <contour>
      <point x="242" y="-127" type="line"/>
      <point x="242" y="0" type="line"/>
      <point x="220" y="0" type="line"/>
      <point x="220" y="-127" type="line"/>
    </contour>
    <contour>
      <point x="134" y="12"/>
      <point x="70" y="68"/>
      <point x="70" y="152" type="curve" smooth="yes"/>
      <point x="70" y="548" type="line" smooth="yes"/>
      <point x="70" y="632"/>
      <point x="134" y="688"/>
      <point x="231" y="688" type="curve" smooth="yes"/>
      <point x="328" y="688"/>
      <point x="392" y="632"/>
      <point x="392" y="548" type="curve" smooth="yes"/>
      <point x="392" y="152" type="line" smooth="yes"/>
      <point x="392" y="68"/>
      <point x="328" y="12"/>
      <point x="231" y="12" type="curve" smooth="yes"/>
    </contour>
    <contour>
      <point x="341" y="-9"/>
      <point x="414" y="56"/>
      <point x="414" y="154" type="curve" smooth="yes"/>
      <point x="414" y="546" type="line" smooth="yes"/>
      <point x="414" y="644"/>
      <point x="341" y="709"/>
      <point x="231" y="709" type="curve" smooth="yes"/>
      <point x="121" y="709"/>
      <point x="48" y="644"/>
      <point x="48" y="546" type="curve" smooth="yes"/>
      <point x="48" y="154" type="line" smooth="yes"/>
      <point x="48" y="56"/>
      <point x="121" y="-9"/>
      <point x="231" y="-9" type="curve" smooth="yes"/>
    </contour>
  </outline>
</glyph>
<glyph name="R" format="1">
  <advance width="471"/>
  <unicode hex="0052"/>
  <outline>
    <contour>
      <point x="103" y="0" type="line"/>
      <point x="103" y="680" type="line"/>
      <point x="269" y="680" type="line" smooth="yes"/>
      <point x="348" y="680"/>
      <point x="401" y="616"/>
      <point x="401" y="520" type="curve" smooth="yes"/>
      <point x="401" y="424"/>
      <point x="348" y="360"/>
      <point x="269" y="360" type="curve" smooth="yes"/>
      <point x="98" y="360" type="line"/>
      <point x="98" y="340" type="line"/>
      <point x="267" y="340" type="line" smooth="yes"/>
      <point x="361" y="340"/>
      <point x="423" y="411"/>
      <point x="423" y="520" type="curve" smooth="yes"/>
      <point x="423" y="629"/>
      <point x="361" y="702"/>
      <point x="267" y="702" type="curve" smooth="yes"/>
      <point x="80" y="702" type="line"/>
      <point x="80" y="0" type="line"/>
    </contour>
    <contour>
      <point x="431" y="0" type="line"/>
      <point x="307" y="349" type="line"/>
      <point x="289" y="341" type="line"/>
      <point x="409" y="0" type="line"/>
    </contour>
  </outline>
</glyph>
<glyph name="S" format="1">
  <advance width="486"/>
  <unicode hex="0053"/>
  <outline>
    <contour>
      <point x="350" y="-9"/>
      <point x="414" y="49"/>
      <point x="414" y="149" type="curve" smooth="yes"/>
      <point x="414" y="254"/>
      <point x="331" y="307"/>
      <point x="249" y="359" type="curve" smooth="yes"/>
      <point x="171" y="409"/>
      <point x="94" y="457"/>
      <point x="94" y="550" type="curve" smooth="yes"/>
      <point x="94" y="637"/>
      <point x="148" y="688"/>
      <point x="240" y="688" type="curve" smooth="yes"/>
      <point x="332" y="688"/>
      <point x="386" y="636"/>
      <point x="386" y="548" type="curve" smooth="yes"/>
      <point x="386" y="500" type="line"/>
      <point x="408" y="500" type="line"/>
      <point x="408" y="549" type="line" smooth="yes"/>
      <point x="408" y="650"/>
      <point x="346" y="709"/>
      <point x="240" y="709" type="curve" smooth="yes"/>
      <point x="134" y="709"/>
      <point x="72" y="651"/>
      <point x="72" y="552" type="curve" smooth="yes"/>
      <point x="72" y="448"/>
      <point x="155" y="395"/>
      <point x="236" y="343" type="curve" smooth="yes"/>
      <point x="315" y="293"/>
      <point x="392" y="243"/>
      <point x="392" y="149" type="curve" smooth="yes"/>
      <point x="392" y="63"/>
      <point x="336" y="12"/>
      <point x="241" y="12" type="curve" smooth="yes"/>
      <point x="148" y="12"/>
      <point x="94" y="63"/>
      <point x="94" y="151" type="curve" smooth="yes"/>
      <point x="94" y="210" type="line"/>
      <point x="74" y="210" type="line"/>
      <point x="74" y="150" type="line" smooth="yes"/>
      <point x="74" y="50"/>
      <point x="136" y="-9"/>
      <point x="242" y="-9" type="curve" smooth="yes"/>
    </contour>
  </outline>
</glyph>
<glyph name="T" format="1">
  <advance width="410"/>
  <unicode hex="0054"/>
  <outline>
    <contour>
      <point x="222" y="0" type="line"/>
      <point x="222" y="689" type="line"/>
      <point x="200" y="689" type="line"/>
      <point x="200" y="0" type="line"/>
    </contour>
    <contour>
      <point x="400" y="679" type="line"/>
      <point x="400" y="700" type="line"/>
      <point x="30" y="700" type="line"/>
      <point x="30" y="679" type="line"/>
    </contour>
  </outline>
</glyph>
<glyph name="U" format="1">
  <advance width="522"/>
  <unicode hex="0055"/>
  <outline>
    <contour>
      <point x="370" y="-9"/>
      <point x="442" y="59"/>
      <point x="442" y="160" type="curve" smooth="yes"/>
      <point x="442" y="700" type="line"/>
      <point x="420" y="700" type="line"/>
      <point x="420" y="156" type="line" smooth="yes"/>
      <point x="420" y="70"/>
      <point x="356" y="12"/>
      <point x="261" y="12" type="curve" smooth="yes"/>
      <point x="166" y="12"/>
      <point x="102" y="70"/>
      <point x="102" y="156" type="curve" smooth="yes"/>
      <point x="102" y="700" type="line"/>
      <point x="80" y="700" type="line"/>
      <point x="80" y="160" type="line" smooth="yes"/>
      <point x="80" y="59"/>
      <point x="152" y="-9"/>
      <point x="261" y="-9" type="curve" smooth="yes"/>
    </contour>
  </outline>
</glyph>
<glyph name="V" format="1">
  <advance width="400"/>
  <unicode hex="0056"/>
  <outline>
    <contour>
      <point x="211" y="0" type="line"/>
      <point x="412" y="700" type="line"/>
      <point x="390" y="700" type="line"/>
      <point x="200" y="42" type="line"/>
      <point x="10" y="700" type="line"/>
      <point x="-12" y="700" type="line"/>
      <point x="189" y="0" type="line"/>
    </contour>
  </outline>
</glyph>
<glyph name="W" format="1">
  <advance width="690"/>
  <unicode hex="0057"/>
  <outline>
    <contour>
      <point x="202" y="0" type="line"/>
      <point x="346" y="657" type="line"/>
      <point x="486" y="0" type="line"/>
      <point x="507" y="0" type="line"/>
      <point x="660" y="700" type="line"/>
      <point x="638" y="700" type="line"/>
      <point x="498" y="40" type="line"/>
      <point x="354" y="700" type="line"/>
      <point x="336" y="700" type="line"/>
      <point x="192" y="40" type="line"/>
      <point x="52" y="700" type="line"/>
      <point x="30" y="700" type="line"/>
      <point x="180" y="0" type="line"/>
    </contour>
  </outline>
</glyph>
<glyph name="X" format="1">
  <advance width="448"/>
  <unicode hex="0058"/>
  <outline>
    <contour>
      <point x="55" y="0" type="line"/>
      <point x="224" y="330" type="line"/>
      <point x="393" y="0" type="line"/>
      <point x="418" y="0" type="line"/>
      <point x="235" y="349" type="line"/>
      <point x="418" y="700" type="line"/>
      <point x="393" y="700" type="line"/>
      <point x="224" y="369" type="line"/>
      <point x="55" y="700" type="line"/>
      <point x="30" y="700" type="line"/>
      <point x="213" y="350" type="line"/>
      <point x="30" y="0" type="line"/>
    </contour>
  </outline>
</glyph>
<glyph name="Y" format="1">
  <advance width="460"/>
  <unicode hex="0059"/>
  <outline>
    <contour>
      <point x="242" y="0" type="line"/>
      <point x="242" y="339" type="line"/>
      <point x="433" y="700" type="line"/>
      <point x="412" y="700" type="line"/>
      <point x="231" y="358" type="line"/>
      <point x="49" y="700" type="line"/>
      <point x="27" y="700" type="line"/>
      <point x="220" y="339" type="line"/>
      <point x="220" y="0" type="line"/>
    </contour>
  </outline>
</glyph>
<glyph name="Z" format="1">
  <advance width="409"/>
  <unicode hex="005A"/>
  <outline>
    <contour>
      <point x="368" y="0" type="line"/>
      <point x="368" y="21" type="line"/>
      <point x="56" y="21" type="line"/>
      <point x="368" y="679" type="line"/>
      <point x="368" y="700" type="line"/>
      <point x="31" y="700" type="line"/>
      <point x="31" y="679" type="line"/>
      <point x="344" y="679" type="line"/>
      <point x="31" y="21" type="line"/>
      <point x="31" y="0" type="line"/>
    </contour>
  </outline>
</glyph>
<glyph name="bracketleft" format="1">
  <advance width="344"/>
  <unicode hex="005B"/>
  <outline>
    <contour>
      <point x="204" y="-103" type="line"/>
      <point x="204" y="-82" type="line"/>
      <point x="52" y="-82" type="line"/>
      <point x="52" y="735" type="line"/>
      <point x="203" y="735" type="line"/>
      <point x="203" y="756" type="line"/>
      <point x="30" y="756" type="line"/>
      <point x="30" y="-103" type="line"/>
    </contour>
  </outline>
</glyph>
<glyph name="a" format="1">
  <advance width="480"/>
  <unicode hex="0061"/>
  <outline>
    <contour>
      <point x="410" y="0" type="line"/>
      <point x="410" y="342" type="line" smooth="yes"/>
      <point x="410" y="442"/>
      <point x="342" y="508"/>
      <point x="241" y="508" type="curve" smooth="yes"/>
      <point x="144" y="508"/>
      <point x="77" y="454"/>
      <point x="77" y="372" type="curve" smooth="yes"/>
      <point x="77" y="371" type="line"/>
      <point x="99" y="371" type="line"/>
      <point x="99" y="375" type="line" smooth="yes"/>
      <point x="99" y="442"/>
      <point x="157" y="487"/>
      <point x="241" y="487" type="curve" smooth="yes"/>
      <point x="329" y="487"/>
      <point x="388" y="430"/>
      <point x="388" y="345" type="curve" smooth="yes"/>
      <point x="388" y="0" type="line"/>
    </contour>
    <contour>
      <point x="314" y="-8"/>
      <point x="405" y="37"/>
      <point x="405" y="142" type="curve"/>
      <point x="405" y="277" type="line"/>
      <point x="258" y="277" type="line"/>
      <point x="127" y="277"/>
      <point x="60" y="226"/>
      <point x="60" y="125" type="curve" smooth="yes"/>
      <point x="60" y="18"/>
      <point x="146" y="-8"/>
      <point x="212" y="-8" type="curve" smooth="yes"/>
    </contour>
    <contour>
      <point x="144" y="13"/>
      <point x="82" y="45"/>
      <point x="82" y="126" type="curve" smooth="yes"/>
      <point x="82" y="213"/>
      <point x="146" y="256"/>
      <point x="258" y="256" type="curve"/>
      <point x="388" y="256" type="line"/>
      <point x="388" y="142" type="line" smooth="yes"/>
      <point x="388" y="52"/>
      <point x="302" y="13"/>
      <point x="214" y="13" type="curve" smooth="yes"/>
    </contour>
    <contour>
      <point x="251" y="508" type="move" name="top"/>
    </contour>
  </outline>
</glyph>
<glyph name="b" format="1">
  <advance width="490"/>
  <unicode hex="0062"/>
  <outline>
    <contour>
      <point x="353" y="-5"/>
      <point x="418" y="55"/>
      <point x="418" y="158" type="curve" smooth="yes"/>
      <point x="418" y="342" type="line" smooth="yes"/>
      <point x="418" y="445"/>
      <point x="355" y="508"/>
      <point x="252" y="508" type="curve" smooth="yes"/>
      <point x="150" y="508"/>
      <point x="87" y="445"/>
      <point x="87" y="342" type="curve" smooth="yes"/>
      <point x="87" y="158" type="line" smooth="yes"/>
      <point x="87" y="55"/>
      <point x="148" y="-5"/>
      <point x="250" y="-5" type="curve" smooth="yes"/>
    </contour>
    <contour>
      <point x="106" y="3" type="line"/>
      <point x="106" y="700" type="line"/>
      <point x="84" y="700" type="line"/>
      <point x="84" y="3" type="line"/>
    </contour>
    <contour>
      <point x="161" y="13"/>
      <point x="106" y="66"/>
      <point x="106" y="155" type="curve" smooth="yes"/>
      <point x="106" y="345" type="line" smooth="yes"/>
      <point x="106" y="433"/>
      <point x="161" y="487"/>
      <point x="251" y="487" type="curve" smooth="yes"/>
      <point x="341" y="487"/>
      <point x="396" y="433"/>
      <point x="396" y="345" type="curve" smooth="yes"/>
      <point x="396" y="155" type="line" smooth="yes"/>
      <point x="396" y="67"/>
      <point x="341" y="13"/>
      <point x="251" y="13" type="curve" smooth="yes"/>
    </contour>
  </outline>
</glyph>
<glyph name="c" format="1">
  <advance width="435"/>
  <unicode hex="0063"/>
  <outline>
    <contour>
      <point x="320" y="-8"/>
      <point x="387" y="50"/>
      <point x="387" y="136" type="curve" smooth="yes"/>
      <point x="387" y="149" type="line"/>
      <point x="365" y="149" type="line"/>
      <point x="365" y="135" type="line" smooth="yes"/>
      <point x="365" y="62"/>
      <point x="308" y="13"/>
      <point x="222" y="13" type="curve" smooth="yes"/>
      <point x="137" y="13"/>
      <point x="78" y="70"/>
      <point x="78" y="155" type="curve" smooth="yes"/>
      <point x="78" y="345" type="line" smooth="yes"/>
      <point x="78" y="430"/>
      <point x="137" y="487"/>
      <point x="222" y="487" type="curve" smooth="yes"/>
      <point x="308" y="487"/>
      <point x="365" y="438"/>
      <point x="365" y="365" type="curve" smooth="yes"/>
      <point x="365" y="351" type="line"/>
      <point x="387" y="351" type="line"/>
      <point x="387" y="364" type="line" smooth="yes"/>
      <point x="387" y="450"/>
      <point x="320" y="508"/>
      <point x="222" y="508" type="curve" smooth="yes"/>
      <point x="124" y="508"/>
      <point x="56" y="442"/>
      <point x="56" y="344" type="curve" smooth="yes"/>
      <point x="56" y="156" type="line" smooth="yes"/>
      <point x="56" y="58"/>
      <point x="124" y="-8"/>
      <point x="222" y="-8" type="curve" smooth="yes"/>
    </contour>
  </outline>
</glyph>
<glyph name="e" format="1">
  <advance width="460"/>
  <unicode hex="0065"/>
  <outline>
    <contour>
      <point x="317" y="-8"/>
      <point x="385" y="39"/>
      <point x="401" y="109" type="curve"/>
      <point x="380" y="108" type="line"/>
      <point x="363" y="51"/>
      <point x="304" y="13"/>
      <point x="235" y="13" type="curve" smooth="yes"/>
      <point x="146" y="13"/>
      <point x="85" y="70"/>
      <point x="85" y="155" type="curve" smooth="yes"/>
      <point x="85" y="345" type="line" smooth="yes"/>
      <point x="85" y="430"/>
      <point x="146" y="487"/>
      <point x="234" y="487" type="curve" smooth="yes"/>
      <point x="324" y="487"/>
      <point x="384" y="430"/>
      <point x="384" y="345" type="curve" smooth="yes"/>
      <point x="384" y="265" type="line"/>
      <point x="75" y="265" type="line"/>
      <point x="75" y="244" type="line"/>
      <point x="406" y="244" type="line"/>
      <point x="406" y="343" type="line" smooth="yes"/>
      <point x="406" y="442"/>
      <point x="337" y="508"/>
      <point x="234" y="508" type="curve" smooth="yes"/>
      <point x="133" y="508"/>
      <point x="63" y="442"/>
      <point x="63" y="344" type="curve" smooth="yes"/>
      <point x="63" y="156" type="line" smooth="yes"/>
      <point x="63" y="58"/>
      <point x="133" y="-8"/>
      <point x="235" y="-8" type="curve" smooth="yes"/>
    </contour>
  </outline>
</glyph>
<glyph name="f" format="1">
  <advance width="321"/>
  <unicode hex="0066"/>
  <outline>
    <contour>
      <point x="182" y="0" type="line"/>
      <point x="182" y="550" type="line" smooth="yes"/>
      <point x="182" y="637"/>
      <point x="212" y="689"/>
      <point x="331" y="689" type="curve"/>
      <point x="331" y="710" type="line"/>
      <point x="198" y="710"/>
      <point x="160" y="650"/>
      <point x="160" y="550" type="curve" smooth="yes"/>
      <point x="160" y="0" type="line"/>
    </contour>
    <contour>
      <point x="301" y="479" type="line"/>
      <point x="301" y="500" type="line"/>
      <point x="81" y="500" type="line"/>
      <point x="81" y="479" type="line"/>
    </contour>
  </outline>
</glyph>
<glyph name="g" format="1">
  <advance width="485"/>
  <unicode hex="0067"/>
  <outline>
    <contour>
      <point x="332" y="-205"/>
      <point x="405" y="-137"/>
      <point x="405" y="0" type="curve" smooth="yes"/>
      <point x="405" y="500" type="line"/>
      <point x="383" y="500" type="line"/>
      <point x="383" y="0" type="line" smooth="yes"/>
      <point x="383" y="-123"/>
      <point x="316" y="-183"/>
      <point x="227" y="-179" type="curve"/>
      <point x="227" y="-200" type="line"/>
    </contour>
    <component base="b.bowl" xOffset="402" xScale="-1"/>
  </outline>
</glyph>
<glyph name="h" format="1">
  <advance width="488"/>
  <unicode hex="0068"/>
  <outline>
    <contour>
      <point x="416" y="0" type="line"/>
      <point x="416" y="344" type="line" smooth="yes"/>
      <point x="416" y="443"/>
      <point x="357" y="504"/>
      <point x="262" y="504" type="curve" smooth="yes"/>
      <point x="160" y="504"/>
      <point x="87" y="443"/>
      <point x="87" y="343" type="curve"/>
      <point x="106" y="343" type="line"/>
      <point x="106" y="430"/>
      <point x="171" y="483"/>
      <point x="260" y="483" type="curve" smooth="yes"/>
      <point x="343" y="483"/>
      <point x="394" y="429"/>
      <point x="394" y="341" type="curve" smooth="yes"/>
      <point x="394" y="0" type="line"/>
    </contour>
    <contour>
      <point x="106" y="0" type="line"/>
      <point x="106" y="700" type="line"/>
      <point x="84" y="700" type="line"/>
      <point x="84" y="0" type="line"/>
    </contour>
  </outline>
</glyph>
<glyph name="i" format="1">
  <advance width="182"/>
  <unicode hex="0069"/>
  <outline>
    <contour>
      <point x="102" y="0" type="line"/>
      <point x="102" y="500" type="line"/>
      <point x="80" y="500" type="line"/>
      <point x="80" y="0" type="line"/>
    </contour>
    <contour>
      <point x="108" y="620"/>
      <point x="121" y="633"/>
      <point x="121" y="650" type="curve" smooth="yes"/>
      <point x="121" y="666"/>
      <point x="108" y="679"/>
      <point x="91" y="679" type="curve" smooth="yes"/>
      <point x="74" y="679"/>
      <point x="60" y="666"/>
      <point x="60" y="650" type="curve" smooth="yes"/>
      <point x="60" y="633"/>
      <point x="74" y="620"/>
      <point x="91" y="620" type="curve" smooth="yes"/>
    </contour>
  </outline>
</glyph>
<glyph name="j" format="1">
  <advance width="198"/>
  <unicode hex="006A"/>
  <outline>
    <contour>
      <point x="67" y="-211"/>
      <point x="118" y="-159"/>
      <point x="118" y="-74" type="curve" smooth="yes"/>
      <point x="118" y="500" type="line"/>
      <point x="96" y="500" type="line"/>
      <point x="96" y="-74" type="line" smooth="yes"/>
      <point x="96" y="-146"/>
      <point x="54" y="-190"/>
      <point x="-16" y="-190" type="curve"/>
      <point x="-16" y="-211" type="line"/>
    </contour>
    <contour>
      <point x="126" y="660"/>
      <point x="138" y="671"/>
      <point x="138" y="690" type="curve" smooth="yes"/>
      <point x="138" y="709"/>
      <point x="126" y="719"/>
      <point x="107" y="719" type="curve" smooth="yes"/>
      <point x="89" y="719"/>
      <point x="76" y="709"/>
      <point x="76" y="690" type="curve" smooth="yes"/>
      <point x="76" y="671"/>
      <point x="89" y="660"/>
      <point x="107" y="660" type="curve" smooth="yes"/>
    </contour>
  </outline>
</glyph>
<glyph name="k" format="1">
  <advance width="379"/>
  <unicode hex="006B"/>
  <outline>
    <contour>
      <point x="353" y="500" type="line"/>
      <point x="122" y="269" type="line"/>
      <point x="122" y="700" type="line"/>
      <point x="100" y="700" type="line"/>
      <point x="100" y="0" type="line"/>
      <point x="122" y="0" type="line"/>
      <point x="122" y="231" type="line"/>
      <point x="353" y="0" type="line"/>
      <point x="379" y="0" type="line"/>
      <point x="129" y="250" type="line"/>
      <point x="379" y="500" type="line"/>
    </contour>
  </outline>
</glyph>
<glyph name="l" format="1">
  <advance width="222"/>
  <unicode hex="006C"/>
  <outline>
    <contour>
      <point x="122" y="0" type="line"/>
      <point x="122" y="700" type="line"/>
      <point x="100" y="700" type="line"/>
      <point x="100" y="0" type="line"/>
    </contour>
  </outline>
</glyph>
<glyph name="m" format="1">
  <advance width="729"/>
  <unicode hex="006D"/>
  <outline>
    <contour>
      <point x="86" y="0" type="line"/>
      <point x="86" y="500" type="line"/>
      <point x="64" y="500" type="line"/>
      <point x="64" y="0" type="line"/>
    </contour>
    <contour>
      <point x="379" y="0" type="line"/>
      <point x="379" y="347" type="line" smooth="yes"/>
      <point x="379" y="446"/>
      <point x="317" y="507"/>
      <point x="228" y="507" type="curve" smooth="yes"/>
      <point x="132" y="507"/>
      <point x="69" y="448"/>
      <point x="69" y="346" type="curve"/>
      <point x="86" y="346" type="line"/>
      <point x="86" y="433"/>
      <point x="140" y="486"/>
      <point x="225" y="486" type="curve" smooth="yes"/>
      <point x="303" y="486"/>
      <point x="357" y="432"/>
      <point x="357" y="344" type="curve" smooth="yes"/>
      <point x="357" y="0" type="line"/>
    </contour>
    <contour>
      <point x="673" y="0" type="line"/>
      <point x="673" y="347" type="line" smooth="yes"/>
      <point x="673" y="446"/>
      <point x="610" y="507"/>
      <point x="521" y="507" type="curve" smooth="yes"/>
      <point x="426" y="507"/>
      <point x="362" y="448"/>
      <point x="362" y="346" type="curve"/>
      <point x="379" y="346" type="line"/>
      <point x="379" y="433"/>
      <point x="434" y="486"/>
      <point x="518" y="486" type="curve" smooth="yes"/>
      <point x="596" y="486"/>
      <point x="651" y="432"/>
      <point x="651" y="344" type="curve" smooth="yes"/>
      <point x="651" y="0" type="line"/>
    </contour>
  </outline>
</glyph>
<glyph name="n" format="1">
  <advance width="522"/>
  <unicode hex="006E"/>
  <outline>
    <contour>
      <point x="432" y="0" type="line"/>
      <point x="432" y="347" type="line" smooth="yes"/>
      <point x="432" y="446"/>
      <point x="367" y="507"/>
      <point x="272" y="507" type="curve" smooth="yes"/>
      <point x="170" y="507"/>
      <point x="104" y="448"/>
      <point x="104" y="346" type="curve"/>
      <point x="122" y="346" type="line"/>
      <point x="122" y="433"/>
      <point x="181" y="486"/>
      <point x="270" y="486" type="curve" smooth="yes"/>
      <point x="353" y="486"/>
      <point x="410" y="432"/>
      <point x="410" y="344" type="curve" smooth="yes"/>
      <point x="410" y="0" type="line"/>
    </contour>
    <contour>
      <point x="122" y="0" type="line"/>
      <point x="122" y="500" type="line"/>
      <point x="100" y="500" type="line"/>
      <point x="100" y="0" type="line"/>
    </contour>
  </outline>
</glyph>
<glyph name="o" format="1">
  <advance width="455"/>
  <unicode hex="006F"/>
  <outline>
    <contour>
      <point x="331" y="-8"/>
      <point x="401" y="67"/>
      <point x="401" y="168" type="curve" smooth="yes"/>
      <point x="401" y="332" type="line" smooth="yes"/>
      <point x="401" y="433"/>
      <point x="331" y="508"/>
      <point x="227" y="508" type="curve" smooth="yes"/>
      <point x="123" y="508"/>
      <point x="54" y="433"/>
      <point x="54" y="332" type="curve" smooth="yes"/>
      <point x="54" y="168" type="line" smooth="yes"/>
      <point x="54" y="67"/>
      <point x="123" y="-8"/>
      <point x="227" y="-8" type="curve" smooth="yes"/>
    </contour>
    <contour>
      <point x="136" y="13"/>
      <point x="76" y="79"/>
      <point x="76" y="167" type="curve" smooth="yes"/>
      <point x="76" y="333" type="line" smooth="yes"/>
      <point x="76" y="421"/>
      <point x="136" y="487"/>
      <point x="227" y="487" type="curve" smooth="yes"/>
      <point x="318" y="487"/>
      <point x="379" y="421"/>
      <point x="379" y="333" type="curve" smooth="yes"/>
      <point x="379" y="167" type="line" smooth="yes"/>
      <point x="379" y="79"/>
      <point x="318" y="13"/>
      <point x="227" y="13" type="curve" smooth="yes"/>
    </contour>
  </outline>
</glyph>
<glyph name="q" format="1">
  <advance width="490"/>
  <unicode hex="0071"/>
  <outline>
    <contour>
      <point x="338" y="-8"/>
      <point x="403" y="55"/>
      <point x="403" y="158" type="curve" smooth="yes"/>
      <point x="403" y="342" type="line" smooth="yes"/>
      <point x="403" y="445"/>
      <point x="340" y="508"/>
      <point x="238" y="508" type="curve" smooth="yes"/>
      <point x="135" y="508"/>
      <point x="72" y="445"/>
      <point x="72" y="342" type="curve" smooth="yes"/>
      <point x="72" y="158" type="line" smooth="yes"/>
      <point x="72" y="55"/>
      <point x="135" y="-8"/>
      <point x="238" y="-8" type="curve" smooth="yes"/>
    </contour>
    <contour>
      <point x="149" y="13"/>
      <point x="94" y="67"/>
      <point x="94" y="155" type="curve" smooth="yes"/>
      <point x="94" y="345" type="line" smooth="yes"/>
      <point x="94" y="433"/>
      <point x="149" y="487"/>
      <point x="239" y="487" type="curve" smooth="yes"/>
      <point x="329" y="487"/>
      <point x="384" y="434"/>
      <point x="384" y="345" type="curve" smooth="yes"/>
      <point x="384" y="155" type="line" smooth="yes"/>
      <point x="384" y="67"/>
      <point x="329" y="13"/>
      <point x="239" y="13" type="curve" smooth="yes"/>
    </contour>
    <contour>
      <point x="406" y="-200" type="line"/>
      <point x="406" y="500" type="line"/>
      <point x="384" y="500" type="line"/>
      <point x="384" y="-200" type="line"/>
    </contour>
  </outline>
</glyph>
<glyph name="r" format="1">
  <advance width="337"/>
  <unicode hex="0072"/>
  <outline>
    <contour>
      <point x="112" y="341" type="line"/>
      <point x="112" y="429"/>
      <point x="169" y="479"/>
      <point x="251" y="479" type="curve" smooth="yes"/>
      <point x="276" y="479"/>
      <point x="291" y="474"/>
      <point x="306" y="466" type="curve"/>
      <point x="317" y="489" type="line"/>
      <point x="300" y="498"/>
      <point x="282" y="504"/>
      <point x="252" y="504" type="curve" smooth="yes"/>
      <point x="158" y="504"/>
      <point x="96" y="448"/>
      <point x="96" y="341" type="curve"/>
    </contour>
    <contour>
      <point x="112" y="0" type="line"/>
      <point x="112" y="500" type="line"/>
      <point x="90" y="500" type="line"/>
      <point x="90" y="0" type="line"/>
    </contour>
  </outline>
</glyph>
<glyph name="s" format="1">
  <advance width="430"/>
  <unicode hex="0073"/>
  <outline>
    <contour>
      <point x="326" y="-4"/>
      <point x="390" y="53"/>
      <point x="390" y="130" type="curve" smooth="yes"/>
      <point x="390" y="218"/>
      <point x="305" y="241"/>
      <point x="224" y="267" type="curve" smooth="yes"/>
      <point x="149" y="291"/>
      <point x="84" y="313"/>
      <point x="84" y="379" type="curve" smooth="yes"/>
      <point x="84" y="440"/>
      <point x="139" y="483"/>
      <point x="223" y="483" type="curve" smooth="yes"/>
      <point x="310" y="483"/>
      <point x="366" y="437"/>
      <point x="366" y="369" type="curve" smooth="yes"/>
      <point x="366" y="356" type="line"/>
      <point x="388" y="356" type="line"/>
      <point x="388" y="369" type="line" smooth="yes"/>
      <point x="388" y="450"/>
      <point x="323" y="504"/>
      <point x="224" y="504" type="curve" smooth="yes"/>
      <point x="128" y="504"/>
      <point x="62" y="454"/>
      <point x="62" y="378" type="curve" smooth="yes"/>
      <point x="62" y="297"/>
      <point x="137" y="271"/>
      <point x="219" y="245" type="curve" smooth="yes"/>
      <point x="294" y="221"/>
      <point x="368" y="202"/>
      <point x="368" y="129" type="curve" smooth="yes"/>
      <point x="368" y="65"/>
      <point x="311" y="17"/>
      <point x="226" y="17" type="curve" smooth="yes"/>
      <point x="139" y="17"/>
      <point x="82" y="67"/>
      <point x="82" y="132" type="curve" smooth="yes"/>
      <point x="82" y="157" type="line"/>
      <point x="60" y="157" type="line"/>
      <point x="60" y="132" type="line" smooth="yes"/>
      <point x="60" y="54"/>
      <point x="127" y="-4"/>
      <point x="227" y="-4" type="curve" smooth="yes"/>
    </contour>
    <contour>
      <point x="225" y="504" type="move" name="top"/>
    </contour>
  </outline>
</glyph>
<glyph name="t" format="1">
  <advance width="311"/>
  <unicode hex="0074"/>
  <outline>
    <contour>
      <point x="272" y="0" type="line"/>
      <point x="272" y="21" type="line"/>
      <point x="243" y="21" type="line" smooth="yes"/>
      <point x="172" y="21"/>
      <point x="135" y="43"/>
      <point x="135" y="123" type="curve" smooth="yes"/>
      <point x="135" y="626" type="line"/>
      <point x="113" y="626" type="line"/>
      <point x="113" y="124" type="line" smooth="yes"/>
      <point x="113" y="23"/>
      <point x="167" y="0"/>
      <point x="243" y="0" type="curve" smooth="yes"/>
    </contour>
    <contour>
      <point x="270" y="479" type="line"/>
      <point x="270" y="500" type="line"/>
      <point x="39" y="500" type="line"/>
      <point x="39" y="479" type="line"/>
    </contour>
  </outline>
</glyph>
<glyph name="v" format="1">
  <advance width="428"/>
  <unicode hex="0076"/>
  <outline>
    <contour>
      <point x="221" y="0" type="line"/>
      <point x="392" y="500" type="line"/>
      <point x="367" y="500" type="line"/>
      <point x="210" y="33" type="line"/>
      <point x="52" y="500" type="line"/>
      <point x="27" y="500" type="line"/>
      <point x="199" y="0" type="line"/>
    </contour>
  </outline>
</glyph>
<glyph name="w" format="1">
  <advance width="668"/>
  <unicode hex="0077"/>
  <outline>
    <contour>
      <point x="205" y="0" type="line"/>
      <point x="334" y="461" type="line"/>
      <point x="464" y="0" type="line"/>
      <point x="486" y="0" type="line"/>
      <point x="628" y="500" type="line"/>
      <point x="606" y="500" type="line"/>
      <point x="476" y="27" type="line"/>
      <point x="346" y="500" type="line"/>
      <point x="325" y="500" type="line"/>
      <point x="195" y="27" type="line"/>
      <point x="65" y="500" type="line"/>
      <point x="40" y="500" type="line"/>
      <point x="183" y="0" type="line"/>
    </contour>
  </outline>
</glyph>
<glyph name="x" format="1">
  <advance width="433"/>
  <unicode hex="0078"/>
  <outline>
    <contour>
      <point x="55" y="0" type="line"/>
      <point x="212" y="233" type="line"/>
      <point x="368" y="0" type="line"/>
      <point x="393" y="0" type="line"/>
      <point x="223" y="250" type="line"/>
      <point x="393" y="500" type="line"/>
      <point x="368" y="500" type="line"/>
      <point x="212" y="267" type="line"/>
      <point x="55" y="500" type="line"/>
      <point x="30" y="500" type="line"/>
      <point x="201" y="250" type="line"/>
      <point x="30" y="0" type="line"/>
    </contour>
  </outline>
</glyph>
<glyph name="y" format="1">
  <advance width="427"/>
  <unicode hex="0079"/>
  <outline>
    <contour>
      <point x="132" y="-200"/>
      <point x="158" y="-188"/>
      <point x="201" y="-62" type="curve" smooth="yes"/>
      <point x="391" y="500" type="line"/>
      <point x="369" y="500" type="line"/>
      <point x="212" y="27" type="line"/>
      <point x="49" y="500" type="line"/>
      <point x="27" y="500" type="line"/>
      <point x="202" y="0" type="line"/>
      <point x="154" y="-150"/>
      <point x="141" y="-181"/>
      <point x="64" y="-181" type="curve"/>
      <point x="64" y="-200" type="line"/>
    </contour>
  </outline>
</glyph>
<glyph name="z" format="1">
  <advance width="424"/>
  <unicode hex="007A"/>
  <outline>
    <contour>
      <point x="374" y="0" type="line"/>
      <point x="374" y="21" type="line"/>
      <point x="64" y="21" type="line"/>
      <point x="384" y="479" type="line"/>
      <point x="384" y="500" type="line"/>
      <point x="44" y="500" type="line"/>
      <point x="44" y="479" type="line"/>
      <point x="360" y="479" type="line"/>
      <point x="40" y="21" type="line"/>
      <point x="40" y="0" type="line"/>
    </contour>
  </outline>
</glyph>
<glyph name="copyright" format="1">
  <advance width="882"/>
  <unicode hex="00A9"/>
  <outline>
    <contour>
      <point x="640" y="-71"/>
      <point x="802" y="92"/>
      <point x="802" y="290" type="curve" smooth="yes"/>
      <point x="802" y="488"/>
      <point x="640" y="651"/>
      <point x="441" y="651" type="curve" smooth="yes"/>
      <point x="242" y="651"/>
      <point x="80" y="488"/>
      <point x="80" y="290" type="curve" smooth="yes"/>
      <point x="80" y="92"/>
      <point x="242" y="-71"/>
      <point x="441" y="-71" type="curve" smooth="yes"/>
    </contour>
    <contour>
      <point x="254" y="-50"/>
      <point x="102" y="102"/>
      <point x="102" y="290" type="curve" smooth="yes"/>
      <point x="102" y="478"/>
      <point x="254" y="630"/>
      <point x="441" y="630" type="curve" smooth="yes"/>
      <point x="628" y="630"/>
      <point x="780" y="478"/>
      <point x="780" y="290" type="curve" smooth="yes"/>
      <point x="780" y="102"/>
      <point x="628" y="-50"/>
      <point x="441" y="-50" type="curve" smooth="yes"/>
    </contour>
    <contour>
      <point x="513" y="103"/>
      <point x="559" y="148"/>
      <point x="559" y="223" type="curve" smooth="yes"/>
      <point x="559" y="225" type="line"/>
      <point x="543" y="225" type="line"/>
      <point x="543" y="223" type="line" smooth="yes"/>
      <point x="543" y="158"/>
      <point x="504" y="118"/>
      <point x="438" y="118" type="curve" smooth="yes"/>
      <point x="373" y="118"/>
      <point x="334" y="158"/>
      <point x="334" y="223" type="curve" smooth="yes"/>
      <point x="334" y="367" type="line" smooth="yes"/>
      <point x="334" y="433"/>
      <point x="375" y="472"/>
      <point x="438" y="472" type="curve" smooth="yes"/>
      <point x="502" y="472"/>
      <point x="543" y="433"/>
      <point x="543" y="367" type="curve" smooth="yes"/>
      <point x="543" y="366" type="line"/>
      <point x="559" y="366" type="line"/>
      <point x="559" y="367" type="line" smooth="yes"/>
      <point x="559" y="442"/>
      <point x="513" y="487"/>
      <point x="438" y="487" type="curve" smooth="yes"/>
      <point x="364" y="487"/>
      <point x="317" y="442"/>
      <point x="317" y="367" type="curve" smooth="yes"/>
      <point x="317" y="223" type="line" smooth="yes"/>
      <point x="317" y="148"/>
      <point x="364" y="103"/>
      <point x="438" y="103" type="curve" smooth="yes"/>
    </contour>
  </outline>
</glyph>
<glyph name="registered" format="1">
  <advance width="882"/>
  <unicode hex="00AE"/>
  <outline>
    <contour>
      <point x="640" y="-72"/>
      <point x="802" y="91"/>
      <point x="802" y="289" type="curve" smooth="yes"/>
      <point x="802" y="487"/>
      <point x="640" y="650"/>
      <point x="441" y="650" type="curve" smooth="yes"/>
      <point x="242" y="650"/>
      <point x="80" y="487"/>
      <point x="80" y="289" type="curve" smooth="yes"/>
      <point x="80" y="91"/>
      <point x="242" y="-72"/>
      <point x="441" y="-72" type="curve" smooth="yes"/>
    </contour>
    <contour>
      <point x="541" y="101" type="line"/>
      <point x="476" y="287" type="line"/>
      <point x="466" y="283" type="line"/>
      <point x="529" y="101" type="line"/>
    </contour>
    <contour>
      <point x="254" y="-51"/>
      <point x="102" y="101"/>
      <point x="102" y="289" type="curve" smooth="yes"/>
      <point x="102" y="477"/>
      <point x="254" y="629"/>
      <point x="441" y="629" type="curve" smooth="yes"/>
      <point x="628" y="629"/>
      <point x="780" y="477"/>
      <point x="780" y="289" type="curve" smooth="yes"/>
      <point x="780" y="101"/>
      <point x="628" y="-51"/>
      <point x="441" y="-51" type="curve" smooth="yes"/>
    </contour>
    <contour>
      <point x="370" y="101" type="line"/>
      <point x="370" y="464" type="line"/>
      <point x="466" y="464" type="line" smooth="yes"/>
      <point x="511" y="464"/>
      <point x="541" y="430"/>
      <point x="541" y="378" type="curve" smooth="yes"/>
      <point x="541" y="327"/>
      <point x="511" y="293"/>
      <point x="466" y="293" type="curve" smooth="yes"/>
      <point x="367" y="293" type="line"/>
      <point x="367" y="282" type="line"/>
      <point x="465" y="282" type="line" smooth="yes"/>
      <point x="518" y="282"/>
      <point x="552" y="320"/>
      <point x="552" y="378" type="curve" smooth="yes"/>
      <point x="552" y="436"/>
      <point x="518" y="475"/>
      <point x="465" y="475" type="curve" smooth="yes"/>
      <point x="358" y="475" type="line"/>
      <point x="358" y="101" type="line"/>
    </contour>
  </outline>
</glyph>
<glyph name="thorn" format="1">
  <advance width="495"/>
  <unicode hex="00FE"/>
  <outline>
    <contour>
      <point x="80" y="-167" type="line"/>
      <point x="102" y="-167" type="line"/>
      <point x="102" y="725" type="line"/>
      <point x="80" y="725" type="line"/>
    </contour>
    <component base="b.bowl" xOffset="83"/>
  </outline>
</glyph>
<glyph name="idotless" format="1">
  <advance width="162"/>
  <unicode hex="0131"/>
  <outline>
    <contour>
      <point x="92" y="0" type="line"/>
      <point x="92" y="500" type="line"/>
      <point x="70" y="500" type="line"/>
      <point x="70" y="0" type="line"/>
    </contour>
    <contour>
      <point x="81" y="509" type="move" name="top"/>
    </contour>
  </outline>
</glyph>
<glyph name="caron" format="1">
  <advance width="292"/>
  <unicode hex="02C7"/>
  <outline>
    <contour>
      <point x="136" y="550" type="line"/>
      <point x="156" y="550" type="line"/>
      <point x="254" y="675" type="line"/>
      <point x="228" y="675" type="line"/>
      <point x="147" y="570" type="line"/>
      <point x="64" y="675" type="line"/>
      <point x="38" y="675" type="line"/>
    </contour>
    <contour>
      <point x="147" y="503" type="move" name="_top"/>
    </contour>
  </outline>
</glyph>
<glyph name="circumflexcomb" format="1">
  <advance width="236"/>
  <unicode hex="0302"/>
  <outline>
    <contour>
      <point x="36" y="550" type="line"/>
      <point x="119" y="655" type="line"/>
      <point x="200" y="550" type="line"/>
      <point x="226" y="550" type="line"/>
      <point x="128" y="675" type="line"/>
      <point x="108" y="675" type="line"/>
      <point x="10" y="550" type="line"/>
    </contour>
    <contour>
      <point x="119" y="503" type="move" name="_top"/>
    </contour>
  </outline>
</glyph>
<glyph name="dotaccentcomb" format="1">
  <advance width="62"/>
  <unicode hex="0307"/>
  <outline>
    <contour>
      <point x="49" y="574"/>
      <point x="62" y="587"/>
      <point x="62" y="604" type="curve" smooth="yes"/>
      <point x="62" y="620"/>
      <point x="49" y="633"/>
      <point x="32" y="633" type="curve" smooth="yes"/>
      <point x="14" y="633"/>
      <point x="0" y="620"/>
      <point x="0" y="604" type="curve" smooth="yes"/>
      <point x="0" y="587"/>
      <point x="14" y="574"/>
      <point x="32" y="574" type="curve" smooth="yes"/>
    </contour>
    <contour>
      <point x="32" y="500" type="move" name="_top"/>
    </contour>
  </outline>
</glyph>
<glyph name="dieresiscomb" format="1">
  <advance width="214"/>
  <unicode hex="0308"/>
  <outline>
    <contour>
      <point x="201" y="612"/>
      <point x="214" y="625"/>
      <point x="214" y="642" type="curve" smooth="yes"/>
      <point x="214" y="658"/>
      <point x="201" y="671"/>
      <point x="184" y="671" type="curve" smooth="yes"/>
      <point x="166" y="671"/>
      <point x="152" y="658"/>
      <point x="152" y="642" type="curve" smooth="yes"/>
      <point x="152" y="625"/>
      <point x="166" y="612"/>
      <point x="184" y="612" type="curve" smooth="yes"/>
    </contour>
    <contour>
      <point x="49" y="612"/>
      <point x="62" y="625"/>
      <point x="62" y="642" type="curve" smooth="yes"/>
      <point x="62" y="658"/>
      <point x="49" y="671"/>
      <point x="32" y="671" type="curve" smooth="yes"/>
      <point x="14" y="671"/>
      <point x="0" y="658"/>
      <point x="0" y="642" type="curve" smooth="yes"/>
      <point x="0" y="625"/>
      <point x="14" y="612"/>
      <point x="32" y="612" type="curve" smooth="yes"/>
    </contour>
    <contour>
      <point x="107" y="500" type="move" name="_top"/>
    </contour>
  </outline>
</glyph>
<glyph name="ringcomb" format="1">
  <advance width="198"/>
  <unicode hex="030A"/>
  <outline>
    <contour>
      <point x="154" y="544"/>
      <point x="198" y="587"/>
      <point x="198" y="641" type="curve" smooth="yes"/>
      <point x="198" y="695"/>
      <point x="154" y="738"/>
      <point x="99" y="738" type="curve" smooth="yes"/>
      <point x="44" y="738"/>
      <point x="0" y="695"/>
      <point x="0" y="641" type="curve" smooth="yes"/>
      <point x="0" y="587"/>
      <point x="44" y="544"/>
      <point x="99" y="544" type="curve" smooth="yes"/>
    </contour>
    <contour>
      <point x="57" y="565"/>
      <point x="22" y="598"/>
      <point x="22" y="641" type="curve" smooth="yes"/>
      <point x="22" y="684"/>
      <point x="57" y="717"/>
      <point x="99" y="717" type="curve" smooth="yes"/>
      <point x="141" y="717"/>
      <point x="176" y="684"/>
      <point x="176" y="641" type="curve" smooth="yes"/>
      <point x="176" y="598"/>
      <point x="141" y="565"/>
      <point x="99" y="565" type="curve" smooth="yes"/>
    </contour>
    <contour>
      <point x="99" y="500" type="move" name="_top"/>
    </contour>
  </outline>
</glyph>
<glyph name="emdash" format="1">
  <advance width="460"/>
  <unicode hex="2014"/>
  <outline>
    <contour>
      <point x="436" y="251" type="line"/>
      <point x="436" y="272" type="line"/>
      <point x="24" y="272" type="line"/>
      <point x="24" y="251" type="line"/>
    </contour>
  </outline>
</glyph>
<glyph name="quoteleft" format="1">
  <advance width="94"/>
  <unicode hex="2018"/>
  <outline>
    <contour>
      <point x="26" y="697" type="line"/>
      <point x="0" y="697" type="line"/>
      <point x="74" y="507" type="line"/>
      <point x="94" y="507" type="line"/>
    </contour>
  </outline>
</glyph>
<glyph name="quotedblleft" format="1">
  <advance width="194"/>
  <unicode hex="201C"/>
  <outline>
    <contour>
      <point x="94" y="507" type="line"/>
      <point x="26" y="697" type="line"/>
      <point x="0" y="697" type="line"/>
      <point x="74" y="507" type="line"/>
    </contour>
    <contour>
      <point x="194" y="507" type="line"/>
      <point x="126" y="697" type="line"/>
      <point x="100" y="697" type="line"/>
      <point x="174" y="507" type="line"/>
    </contour>
  </outline>
</glyph>
<glyph name="a.alt" format="1">
  <advance width="455"/>
  <outline>
    <contour>
      <point x="406" y="0" type="line"/>
      <point x="406" y="500" type="line"/>
      <point x="384" y="500" type="line"/>
      <point x="384" y="0" type="line"/>
    </contour>
    <component base="b.bowl" xOffset="403" xScale="-1"/>
  </outline>
</glyph>
<glyph name="b.bowl" format="1">
  <advance width="342"/>
  <outline>
    <contour>
      <point x="273" y="-8"/>
      <point x="342" y="59"/>
      <point x="342" y="175" type="curve" smooth="yes"/>
      <point x="342" y="325" type="line"/>
      <point x="342" y="441"/>
      <point x="274" y="508"/>
      <point x="172" y="508" type="curve" smooth="yes"/>
      <point x="69" y="508"/>
      <point x="0" y="441"/>
      <point x="0" y="325" type="curve" smooth="yes"/>
      <point x="0" y="175" type="line" smooth="yes"/>
      <point x="0" y="59"/>
      <point x="68" y="-8"/>
      <point x="170" y="-8" type="curve" smooth="yes"/>
    </contour>
    <contour>
      <point x="79" y="13"/>
      <point x="19" y="71"/>
      <point x="19" y="172" type="curve" smooth="yes"/>
      <point x="19" y="328" type="line" smooth="yes"/>
      <point x="19" y="429"/>
      <point x="79" y="487"/>
      <point x="170" y="487" type="curve" smooth="yes"/>
      <point x="260" y="487"/>
      <point x="320" y="429"/>
      <point x="320" y="328" type="curve" smooth="yes"/>
      <point x="320" y="172" type="line" smooth="yes"/>
      <point x="320" y="71"/>
      <point x="260" y="13"/>
      <point x="170" y="13" type="curve" smooth="yes"/>
    </contour>
  </outline>
</glyph>
<glyph name="n.curve" format="1">
  <advance width="334"/>
  <outline>
    <contour>
      <point x="334" y="0" type="line"/>
      <point x="334" y="347" type="line" smooth="yes"/>
      <point x="334" y="446"/>
      <point x="267" y="507"/>
      <point x="171" y="507" type="curve" smooth="yes"/>
      <point x="68" y="507"/>
      <point x="0" y="448"/>
      <point x="0" y="346" type="curve"/>
      <point x="18" y="346" type="line"/>
      <point x="18" y="433"/>
      <point x="77" y="486"/>
      <point x="168" y="486" type="curve" smooth="yes"/>
      <point x="253" y="486"/>
      <point x="312" y="432"/>
      <point x="312" y="344" type="curve" smooth="yes"/>
      <point x="312" y="0" type="line"/>
    </contour>
  </outline>
</glyph>
